{
  "asset": {
    "version": "2.0",
    "generator": "THREE.GLTFExporter"
  },
  "scenes": [
    {
      "nodes": [
        4
      ],
      "name": "AuxScene"
    }
  ],
  "scene": 0,
  "nodes": [
    {
      "name": "kdk_body",
      "mesh": 0
    },
    {
      "name": "kdk_rIris",
      "mesh": 1
    },
    {
      "name": "kdk_eye",
      "mesh": 2
    },
    {
      "name": "kdk_lIris",
      "mesh": 3
    },
    {
      "children": [
        0,
        1,
        2,
        3
      ]
    }
  ],
  "bufferViews": [
    {
      "buffer": 0,
      "byteOffset": 0,
      "byteLength": 267840,
      "target": 34962,
      "byteStride": 12
    },
    {
      "buffer": 0,
      "byteOffset": 267840,
      "byteLength": 267840,
      "target": 34962,
      "byteStride": 12
    },
    {
      "buffer": 0,
      "byteOffset": 535680,
      "byteLength": 178560,
      "target": 34962,
      "byteStride": 8
    },
    {
      "buffer": 0,
      "byteOffset": 714240,
      "byteLength": 3600,
      "target": 34962,
      "byteStride": 12
    },
    {
      "buffer": 0,
      "byteOffset": 717840,
      "byteLength": 3600,
      "target": 34962,
      "byteStride": 12
    },
    {
      "buffer": 0,
      "byteOffset": 721440,
      "byteLength": 2400,
      "target": 34962,
      "byteStride": 8
    },
    {
      "buffer": 0,
      "byteOffset": 723840,
      "byteLength": 5760,
      "target": 34962,
      "byteStride": 12
    },
    {
      "buffer": 0,
      "byteOffset": 729600,
      "byteLength": 5760,
      "target": 34962,
      "byteStride": 12
    },
    {
      "buffer": 0,
      "byteOffset": 735360,
      "byteLength": 3600,
      "target": 34962,
      "byteStride": 12
    },
    {
      "buffer": 0,
      "byteOffset": 738960,
      "byteLength": 3600,
      "target": 34962,
      "byteStride": 12
    },
    {
      "buffer": 0,
      "byteOffset": 742560,
      "byteLength": 2400,
      "target": 34962,
      "byteStride": 8
    }
  ],
  "buffers": [
    {
      "byteLength": 744960,
      "uri": "data:application/octet-stream;base64,"
    }
  ],
  "accessors": [
    {
      "bufferView": 0,
      "componentType": 5126,
      "count": 22320,
      "max": [
        0.6266390085220337,
        2.5485599040985107,
        0.8011980056762695
      ],
      "min": [
        -0.6266390085220337,
        -0.0028469900134950876,
        -0.3433400094509125
      ],
      "type": "VEC3"
    },
    {
      "bufferView": 1,
      "componentType": 5126,
      "count": 22320,
      "max": [
        0.9999714493751526,
        0.9994719624519348,
        0.9996463656425476
      ],
      "min": [
        -0.9999714493751526,
        -0.9999334216117859,
        -0.9995169639587402
      ],
      "type": "VEC3"
    },
    {
      "bufferView": 2,
      "componentType": 5126,
      "count": 22320,
      "max": [
        0.9983440041542053,
        0.9993469715118408
      ],
      "min": [
        0.00012683900422416627,
        0.00149536004755646
      ],
      "type": "VEC2"
    },
    {
      "bufferView": 3,
      "componentType": 5126,
      "count": 300,
      "max": [
        -0.07444419711828232,
        2.4090800285339355,
        0.5837820172309875
      ],
      "min": [
        -0.11043500155210495,
        2.371579885482788,
        0.5660820007324219
      ],
      "type": "VEC3"
    },
    {
      "bufferView": 4,
      "componentType": 5126,
      "count": 300,
      "max": [
        0.13920482993125916,
        0.28192245960235596,
        0.9951900839805603
      ],
      "min": [
        -0.7856362462043762,
        -0.6965417861938477,
        0.551281213760376
      ],
      "type": "VEC3"
    },
    {
      "bufferView": 5,
      "componentType": 5126,
      "count": 300,
      "max": [
        0.9755280017852783,
        0.6506649851799011
      ],
      "min": [
        1.0350699852779144e-7,
        0.17858900129795074
      ],
      "type": "VEC2"
    },
    {
      "bufferView": 6,
      "componentType": 5126,
      "count": 480,
      "max": [
        0.11479199677705765,
        2.4206199645996094,
        0.5833500027656555
      ],
      "min": [
        -0.11479199677705765,
        2.365370035171509,
        0.5520470142364502
      ],
      "type": "VEC3"
    },
    {
      "bufferView": 7,
      "componentType": 5126,
      "count": 480,
      "max": [
        0.9624751806259155,
        0.6475318670272827,
        0.9296104907989502
      ],
      "min": [
        -0.9624751806259155,
        -0.9272916913032532,
        0.16427423059940338
      ],
      "type": "VEC3"
    },
    {
      "bufferView": 8,
      "componentType": 5126,
      "count": 300,
      "max": [
        0.11043500155210495,
        2.4090800285339355,
        0.5837820172309875
      ],
      "min": [
        0.07444419711828232,
        2.371579885482788,
        0.5660820007324219
      ],
      "type": "VEC3"
    },
    {
      "bufferView": 9,
      "componentType": 5126,
      "count": 300,
      "max": [
        0.7856362462043762,
        0.28192245960235596,
        0.9951900839805603
      ],
      "min": [
        -0.13920482993125916,
        -0.6965417861938477,
        0.551281213760376
      ],
      "type": "VEC3"
    },
    {
      "bufferView": 10,
      "componentType": 5126,
      "count": 300,
      "max": [
        1,
        0.6506649851799011
      ],
      "min": [
        0.024471599608659744,
        0.17858900129795074
      ],
      "type": "VEC2"
    }
  ],
  "materials": [
    {
      "pbrMetallicRoughness": {
        "metallicFactor": 0.5,
        "roughnessFactor": 0.5
      }
    }
  ],
  "meshes": [
    {
      "primitives": [
        {
          "mode": 4,
          "attributes": {
            "POSITION": 0,
            "NORMAL": 1,
            "TEXCOORD_0": 2
          },
          "material": 0
        }
      ]
    },
    {
      "primitives": [
        {
          "mode": 4,
          "attributes": {
            "POSITION": 3,
            "NORMAL": 4,
            "TEXCOORD_0": 5
          },
          "material": 0
        }
      ]
    },
    {
      "primitives": [
        {
          "mode": 4,
          "attributes": {
            "POSITION": 6,
            "NORMAL": 7
          },
          "material": 0
        }
      ]
    },
    {
      "primitives": [
        {
          "mode": 4,
          "attributes": {
            "POSITION": 8,
            "NORMAL": 9,
            "TEXCOORD_0": 10
          },
          "material": 0
        }
      ]
    }
  ]
}