{
  "accessors": [
    {
      "name": "kdk_body_1_0_positions",
      "componentType": 5126,
      "count": 22320,
      "min": [
        -0.6266390085220337,
        -0.0028469900134950876,
        -0.3433400094509125
      ],
      "max": [
        0.6266390085220337,
        2.5485599040985107,
        0.8011980056762695
      ],
      "type": "VEC3",
      "bufferView": 0,
      "byteOffset": 0
    },
    {
      "name": "kdk_body_1_0_texcoords",
      "componentType": 5126,
      "count": 22320,
      "min": [
        0.00012683900422416627,
        0.000653000024612993
      ],
      "max": [
        0.9983440041542053,
        0.998504638671875
      ],
      "type": "VEC2",
      "bufferView": 1,
      "byteOffset": 0
    },
    {
      "name": "kdk_body_1_0_indices",
      "componentType": 5123,
      "count": 22320,
      "min": [
        0
      ],
      "max": [
        22319
      ],
      "type": "SCALAR",
      "bufferView": 2,
      "byteOffset": 0
    },
    {
      "name": "kdk_rIris_1_0_positions",
      "componentType": 5126,
      "count": 300,
      "min": [
        -0.11043500155210495,
        2.371579885482788,
        0.5660820007324219
      ],
      "max": [
        -0.07444419711828232,
        2.4090800285339355,
        0.5837820172309875
      ],
      "type": "VEC3",
      "bufferView": 0,
      "byteOffset": 267840
    },
    {
      "name": "kdk_rIris_1_0_texcoords",
      "componentType": 5126,
      "count": 300,
      "min": [
        1.0350699852779144e-7,
        0.3493350148200989
      ],
      "max": [
        0.9755280017852783,
        0.8214110136032104
      ],
      "type": "VEC2",
      "bufferView": 1,
      "byteOffset": 178560
    },
    {
      "name": "kdk_rIris_1_0_indices",
      "componentType": 5123,
      "count": 300,
      "min": [
        0
      ],
      "max": [
        299
      ],
      "type": "SCALAR",
      "bufferView": 2,
      "byteOffset": 44640
    },
    {
      "name": "kdk_eye_1_0_positions",
      "componentType": 5126,
      "count": 120,
      "min": [
        -0.11479199677705765,
        2.365370035171509,
        0.5520470142364502
      ],
      "max": [
        0.11479199677705765,
        2.4206199645996094,
        0.5833500027656555
      ],
      "type": "VEC3",
      "bufferView": 0,
      "byteOffset": 271440
    },
    {
      "name": "kdk_eye_1_0_indices",
      "componentType": 5123,
      "count": 480,
      "min": [
        0
      ],
      "max": [
        119
      ],
      "type": "SCALAR",
      "bufferView": 2,
      "byteOffset": 45240
    },
    {
      "name": "kdk_lIris_1_0_positions",
      "componentType": 5126,
      "count": 300,
      "min": [
        0.07444419711828232,
        2.371579885482788,
        0.5660820007324219
      ],
      "max": [
        0.11043500155210495,
        2.4090800285339355,
        0.5837820172309875
      ],
      "type": "VEC3",
      "bufferView": 0,
      "byteOffset": 272880
    },
    {
      "name": "kdk_lIris_1_0_texcoords",
      "componentType": 5126,
      "count": 300,
      "min": [
        0.024471599608659744,
        0.3493350148200989
      ],
      "max": [
        1,
        0.8214110136032104
      ],
      "type": "VEC2",
      "bufferView": 1,
      "byteOffset": 180960
    },
    {
      "name": "kdk_lIris_1_0_indices",
      "componentType": 5123,
      "count": 300,
      "min": [
        0
      ],
      "max": [
        299
      ],
      "type": "SCALAR",
      "bufferView": 2,
      "byteOffset": 46200
    }
  ],
  "asset": {
    "generator": "obj2gltf",
    "version": "2.0"
  },
  "buffers": [
    {
      "name": "bear_kdk",
      "byteLength": 946172,
      "uri": "data:application/octet-stream;base64,"
    }
  ],
  "bufferViews": [
    {
      "name": "bufferView_0",
      "buffer": 0,
      "byteLength": 276480,
      "byteOffset": 0,
      "byteStride": 12,
      "target": 34962
    },
    {
      "name": "bufferView_1",
      "buffer": 0,
      "byteLength": 183360,
      "byteOffset": 276480,
      "byteStride": 8,
      "target": 34962
    },
    {
      "name": "bufferView_2",
      "buffer": 0,
      "byteLength": 46800,
      "byteOffset": 459840,
      "target": 34963
    },
    {
      "buffer": 0,
      "byteOffset": 506640,
      "byteLength": 439530
    }
  ],
  "images": [
    {
      "name": "bear_kdk",
      "mimeType": "image/tiff",
      "bufferView": 3
    }
  ],
  "materials": [
    {
      "name": "kdk_body",
      "pbrMetallicRoughness": {
        "baseColorTexture": {
          "index": 0
        },
        "baseColorFactor": [
          1,
          1,
          1,
          1
        ],
        "metallicFactor": 0,
        "roughnessFactor": 1
      },
      "emissiveFactor": [
        0,
        0,
        0
      ],
      "alphaMode": "OPAQUE",
      "doubleSided": false
    },
    {
      "name": "kdk_body-2",
      "pbrMetallicRoughness": {
        "baseColorFactor": [
          1,
          1,
          1,
          1
        ],
        "metallicFactor": 0,
        "roughnessFactor": 1
      },
      "emissiveFactor": [
        0,
        0,
        0
      ],
      "alphaMode": "OPAQUE",
      "doubleSided": false
    }
  ],
  "meshes": [
    {
      "name": "kdk_body_1",
      "primitives": [
        {
          "attributes": {
            "POSITION": 0,
            "TEXCOORD_0": 1
          },
          "indices": 2,
          "material": 0,
          "mode": 4
        }
      ]
    },
    {
      "name": "kdk_rIris_1",
      "primitives": [
        {
          "attributes": {
            "POSITION": 3,
            "TEXCOORD_0": 4
          },
          "indices": 5,
          "material": 0,
          "mode": 4
        }
      ]
    },
    {
      "name": "kdk_eye_1",
      "primitives": [
        {
          "attributes": {
            "POSITION": 6
          },
          "indices": 7,
          "material": 1,
          "mode": 4
        }
      ]
    },
    {
      "name": "kdk_lIris_1",
      "primitives": [
        {
          "attributes": {
            "POSITION": 8,
            "TEXCOORD_0": 9
          },
          "indices": 10,
          "material": 0,
          "mode": 4
        }
      ]
    }
  ],
  "nodes": [
    {
      "name": "kdk_body",
      "mesh": 0
    },
    {
      "name": "kdk_rIris",
      "mesh": 1
    },
    {
      "name": "kdk_eye",
      "mesh": 2
    },
    {
      "name": "kdk_lIris",
      "mesh": 3
    }
  ],
  "samplers": [
    {
      "magFilter": 9729,
      "minFilter": 9986,
      "wrapS": 10497,
      "wrapT": 10497
    }
  ],
  "scene": 0,
  "scenes": [
    {
      "nodes": [
        0,
        1,
        2,
        3
      ]
    }
  ],
  "textures": [
    {
      "name": "bear_kdk",
      "sampler": 0,
      "source": 0
    }
  ]
}
