{
  "asset": {
    "version": "2.0",
    "generator": "THREE.GLTFExporter"
  },
  "scenes": [
    {
      "nodes": [
        3
      ],
      "name": "AuxScene"
    }
  ],
  "scene": 0,
  "nodes": [
    {
      "matrix": [
        1,
        0,
        0,
        0,
        0,
        2.220446049250313e-16,
        1.0000000000000002,
        0,
        0,
        -1.0000000000000002,
        2.220446049250313e-16,
        0,
        2.266796551773649,
        -1000.1,
        0.2976281272763484,
        1
      ],
      "name": "bottom",
      "camera": 0
    },
    {
      "matrix": [
        -0.3154675429115337,
        0.07286869335792066,
        1.9290213962132285,
        0,
        0.6483806998554306,
        1.8450569651631819,
        0.03633768716608583,
        0,
        -1.8182507697166272,
        0.6452969184661489,
        -0.3217284407598288,
        0,
        -1.36471538991749,
        0.9803167579305485,
        1.9938116053490957,
        1
      ],
      "name": "axepCube3",
      "mesh": 0
    },
    {
      "name": "polySurface10",
      "mesh": 1
    },
    {
      "children": [
        0,
        1,
        2
      ]
    }
  ],
  "cameras": [
    {
      "type": "orthographic",
      "orthographic": {
        "xmag": 960,
        "ymag": 540,
        "zfar": 10,
        "znear": 0.0001
      },
      "name": "OrthographicCamera"
    }
  ],
  "bufferViews": [
    {
      "buffer": 0,
      "byteOffset": 0,
      "byteLength": 3744,
      "target": 34962,
      "byteStride": 12
    },
    {
      "buffer": 0,
      "byteOffset": 3744,
      "byteLength": 3744,
      "target": 34962,
      "byteStride": 12
    },
    {
      "buffer": 0,
      "byteOffset": 7488,
      "byteLength": 2496,
      "target": 34962,
      "byteStride": 8
    },
    {
      "buffer": 0,
      "byteOffset": 9984,
      "byteLength": 212616,
      "target": 34962,
      "byteStride": 12
    },
    {
      "buffer": 0,
      "byteOffset": 222600,
      "byteLength": 212616,
      "target": 34962,
      "byteStride": 12
    },
    {
      "buffer": 0,
      "byteOffset": 435216,
      "byteLength": 141744,
      "target": 34962,
      "byteStride": 8
    }
  ],
  "buffers": [
    {
      "byteLength": 576960,
      "uri": "data:application/octet-stream;base64,"
    }
  ],
  "accessors": [
    {
      "bufferView": 0,
      "componentType": 5126,
      "count": 312,
      "max": [
        0.11593242734670639,
        0.7904661893844604,
        0.7777343988418579
      ],
      "min": [
        -0.11593242734670639,
        -0.19406378269195557,
        -2.317110300064087
      ],
      "type": "VEC3"
    },
    {
      "bufferView": 1,
      "componentType": 5126,
      "count": 312,
      "max": [
        0.9999949932098389,
        1,
        1
      ],
      "min": [
        -0.9999949932098389,
        -1,
        -1
      ],
      "type": "VEC3"
    },
    {
      "bufferView": 2,
      "componentType": 5126,
      "count": 312,
      "max": [
        0.9689922332763672,
        0.9614954590797424
      ],
      "min": [
        0.05903959274291992,
        0.048356205224990845
      ],
      "type": "VEC2"
    },
    {
      "bufferView": 3,
      "componentType": 5126,
      "count": 17718,
      "max": [
        2.1123154163360596,
        3.103039503097534,
        2.293856382369995
      ],
      "min": [
        -2.3073527812957764,
        -3.744216203689575,
        -2.2812163829803467
      ],
      "type": "VEC3"
    },
    {
      "bufferView": 4,
      "componentType": 5126,
      "count": 17718,
      "max": [
        1,
        1.0000001192092896,
        0.9999865293502808
      ],
      "min": [
        -1,
        -1.0000001192092896,
        -0.999791145324707
      ],
      "type": "VEC3"
    },
    {
      "bufferView": 5,
      "componentType": 5126,
      "count": 17718,
      "max": [
        0.9801145195960999,
        0.9740911722183228
      ],
      "min": [
        0.11980705708265305,
        0.017198801040649414
      ],
      "type": "VEC2"
    }
  ],
  "materials": [
    {
      "pbrMetallicRoughness": {
        "baseColorFactor": [
          0.800000011920929,
          0.800000011920929,
          0.800000011920929,
          1
        ],
        "metallicFactor": 0.5,
        "roughnessFactor": 0.5,
        "baseColorTexture": {
          "index": 0
        }
      },
      "name": "lambert4"
    },
    {
      "pbrMetallicRoughness": {
        "baseColorFactor": [
          0.800000011920929,
          0.800000011920929,
          0.800000011920929,
          1
        ],
        "metallicFactor": 0.5,
        "roughnessFactor": 0.5,
        "baseColorTexture": {
          "index": 1
        }
      },
      "name": "lambert1"
    }
  ],
  "textures": [
    {
      "sampler": 0,
      "source": 0
    },
    {
      "sampler": 1,
      "source": 1
    }
  ],
  "samplers": [
    {
      "magFilter": 9729,
      "minFilter": 9987
    },
    {
      "magFilter": 9729,
      "minFilter": 9987
    }
  ],
  "images": [
    {
      "mimeType": "image/jpeg",
      "uri": "data:image/jpeg;base64,"
    },
    {
      "mimeType": "image/jpeg",
      "uri": "data:image/jpeg;base64,"
    }
  ],
  "meshes": [
    {
      "primitives": [
        {
          "mode": 4,
          "attributes": {
            "POSITION": 0,
            "NORMAL": 1,
            "TEXCOORD_0": 2
          },
          "material": 0
        }
      ]
    },
    {
      "primitives": [
        {
          "mode": 4,
          "attributes": {
            "POSITION": 3,
            "NORMAL": 4,
            "TEXCOORD_0": 5
          },
          "material": 1
        }
      ]
    }
  ]
}